<svg width="32" height="32" viewBox="0 0 32 32" fill="none" xmlns="http://www.w3.org/2000/svg">
<path d="M27 10H25V7C25 6.20435 24.6839 5.44129 24.1213 4.87868C23.5587 4.31607 22.7956 4 22 4H5C4.20435 4 3.44129 4.31607 2.87868 4.87868C2.31607 5.44129 2 6.20435 2 7V27C2 27.7956 2.31607 28.5587 2.87868 29.1213C3.44129 29.6839 4.20435 30 5 30H26.5C27.4283 30 28.3185 29.6313 28.9749 28.9749C29.6313 28.3185 30 27.4283 30 26.5V13C30 12.2044 29.6839 11.4413 29.1213 10.8787C28.5587 10.3161 27.7956 10 27 10ZM4 27V7C4 6.73478 4.10536 6.48043 4.29289 6.29289C4.48043 6.10536 4.73478 6 5 6H22C22.2652 6 22.5196 6.10536 22.7071 6.29289C22.8946 6.48043 23 6.73478 23 7V26.5C23.0021 27.02 23.1218 27.5328 23.35 28H5C4.73478 28 4.48043 27.8946 4.29289 27.7071C4.10536 27.5196 4 27.2652 4 27ZM28 26.5C28 26.8978 27.842 27.2794 27.5607 27.5607C27.2794 27.842 26.8978 28 26.5 28C26.1022 28 25.7206 27.842 25.4393 27.5607C25.158 27.2794 25 26.8978 25 26.5V12H27C27.2652 12 27.5196 12.1054 27.7071 12.2929C27.8946 12.4804 28 12.7348 28 13V26.5Z" fill="#39161C"/>
<path d="M20 11H10C9.73478 11 9.48043 11.1054 9.29289 11.2929C9.10536 11.4804 9 11.7348 9 12C9 12.2652 9.10536 12.5196 9.29289 12.7071C9.48043 12.8946 9.73478 13 10 13H20C20.2652 13 20.5196 12.8946 20.7071 12.7071C20.8946 12.5196 21 12.2652 21 12C21 11.7348 20.8946 11.4804 20.7071 11.2929C20.5196 11.1054 20.2652 11 20 11Z" fill="black"/>
<path d="M20 16H7C6.73478 16 6.48043 16.1054 6.29289 16.2929C6.10536 16.4804 6 16.7348 6 17C6 17.2652 6.10536 17.5196 6.29289 17.7071C6.48043 17.8946 6.73478 18 7 18H20C20.2652 18 20.5196 17.8946 20.7071 17.7071C20.8946 17.5196 21 17.2652 21 17C21 16.7348 20.8946 16.4804 20.7071 16.2929C20.5196 16.1054 20.2652 16 20 16Z" fill="black"/>
<path d="M20 21H7C6.73478 21 6.48043 21.1054 6.29289 21.2929C6.10536 21.4804 6 21.7348 6 22C6 22.2652 6.10536 22.5196 6.29289 22.7071C6.48043 22.8946 6.73478 23 7 23H20C20.2652 23 20.5196 22.8946 20.7071 22.7071C20.8946 22.5196 21 22.2652 21 22C21 21.7348 20.8946 21.4804 20.7071 21.2929C20.5196 21.1054 20.2652 21 20 21Z" fill="black"/>
</svg>
