<svg width="28" height="29" viewBox="0 0 28 29" fill="none" xmlns="http://www.w3.org/2000/svg">
<path fill-rule="evenodd" clip-rule="evenodd" d="M2.22074 14.6934C2.17316 14.7409 2.15385 14.7955 2.15385 14.8419V19.5803C2.15385 20.4071 2.83476 21.088 3.66152 21.088H5.52815C5.65135 21.088 5.74362 20.9958 5.74362 20.8727V14.8419C5.74362 14.7253 5.64359 14.6265 5.52815 14.6265H2.36927C2.32281 14.6265 2.2683 14.6458 2.22074 14.6934ZM0 14.8419C0 13.5435 1.07095 12.4727 2.36927 12.4727H5.52815C6.84863 12.4727 7.89747 13.5512 7.89747 14.8419V20.8727C7.89747 22.1854 6.84087 23.2419 5.52815 23.2419H3.66152C1.6452 23.2419 0 21.5966 0 19.5803V14.8419Z" fill="#39161C"/>
<path fill-rule="evenodd" clip-rule="evenodd" d="M14.0013 3.14017C9.03914 3.14017 5.02689 7.15241 5.02689 12.1145V13.5648C5.02689 14.1596 4.54474 14.6417 3.94997 14.6417C3.35521 14.6417 2.87305 14.1596 2.87305 13.5648V12.1145C2.87305 5.96284 7.84953 0.986328 14.0013 0.986328C20.153 0.986328 25.1295 5.96284 25.1295 12.1145V13.5505C25.1295 14.1452 24.6473 14.6274 24.0526 14.6274C23.4578 14.6274 22.9756 14.1452 22.9756 13.5505V12.1145C22.9756 7.15241 18.9634 3.14017 14.0013 3.14017Z" fill="#39161C"/>
<path fill-rule="evenodd" clip-rule="evenodd" d="M24.1202 21.1092C24.7034 21.2263 25.081 21.794 24.964 22.377C24.2043 26.1585 20.8698 28.9999 16.8721 28.9999H15.4363C14.8415 28.9999 14.3594 28.5177 14.3594 27.9229C14.3594 27.3281 14.8415 26.846 15.4363 26.846H16.8721C19.8242 26.846 22.2909 24.7478 22.8522 21.9529C22.9694 21.3698 23.5371 20.992 24.1202 21.1092Z" fill="#39161C"/>
<path fill-rule="evenodd" clip-rule="evenodd" d="M22.3224 14.6934C22.2748 14.7409 22.2554 14.7955 22.2554 14.8419V20.8727C22.2554 20.9892 22.3554 21.088 22.4709 21.088H24.2657C25.1355 21.088 25.8452 20.3784 25.8452 19.5085V14.8419C25.8452 14.7253 25.7452 14.6265 25.6298 14.6265H22.4709C22.4244 14.6265 22.3699 14.6458 22.3224 14.6934ZM20.1016 14.8419C20.1016 13.5435 21.1725 12.4727 22.4709 12.4727H25.6298C26.9502 12.4727 27.999 13.5512 27.999 14.8419V19.5085C27.999 21.5679 26.3251 23.2419 24.2657 23.2419H22.4709C21.1504 23.2419 20.1016 22.1632 20.1016 20.8727V14.8419Z" fill="#39161C"/>
</svg>
