<svg width="32" height="32" viewBox="0 0 32 32" fill="none" xmlns="http://www.w3.org/2000/svg">
<path d="M28.1361 16.3628C28.0235 16.1323 28.0235 15.8679 28.1361 15.6375L29.1805 13.5011C29.7619 12.3116 29.3012 10.8938 28.1317 10.2733L26.0311 9.15877C25.8045 9.03857 25.6491 8.82463 25.6048 8.57203L25.194 6.22983C24.9652 4.92576 23.7589 4.04945 22.4482 4.2349L20.0938 4.56794C19.8397 4.60382 19.5884 4.52211 19.404 4.34378L17.695 2.69047C16.7434 1.76987 15.2526 1.76981 14.301 2.69047L12.592 4.34394C12.4076 4.52233 12.1563 4.60387 11.9022 4.56811L9.54774 4.23506C8.23661 4.04951 7.03076 4.92592 6.802 6.23L6.39119 8.57209C6.34684 8.82474 6.19147 9.03862 5.96491 9.15888L3.86437 10.2734C2.69483 10.8939 2.23414 12.3118 2.81558 13.5013L3.85983 15.6376C3.97249 15.8681 3.97249 16.1324 3.85983 16.3629L2.81552 18.4992C2.23409 19.6887 2.69477 21.1064 3.86431 21.727L5.96485 22.8415C6.19147 22.9617 6.34684 23.1757 6.39119 23.4283L6.802 25.7705C7.01025 26.9576 8.0282 27.7902 9.19812 27.7901C9.31335 27.7901 9.43027 27.782 9.54779 27.7653L11.9022 27.4323C12.1562 27.3962 12.4076 27.4781 12.592 27.6564L14.301 29.3098C14.7769 29.7701 15.3874 30.0002 15.998 30.0002C16.6085 30.0001 17.2193 29.77 17.6949 29.3098L19.404 27.6564C19.5884 27.4781 19.8398 27.3966 20.0938 27.4323L22.4482 27.7653C23.7595 27.9508 24.9652 27.0745 25.194 25.7704L25.6048 23.4283C25.6492 23.1757 25.8046 22.9618 26.0311 22.8415L28.1317 21.727C29.3012 21.1065 29.7619 19.6886 29.1805 18.4991L28.1361 16.3628ZM27.3747 20.3004L25.2742 21.4149C24.6045 21.7703 24.1452 22.4024 24.0142 23.1492L23.6034 25.4913C23.526 25.9325 23.1181 26.2289 22.6744 26.1663L20.32 25.8332C19.5691 25.7269 18.8261 25.9685 18.2812 26.4957L16.5721 28.1489C16.2502 28.4603 15.7458 28.4603 15.4238 28.1489L13.7148 26.4956C13.2542 26.0501 12.6521 25.8086 12.0235 25.8086C11.9084 25.8086 11.7923 25.8167 11.676 25.8332L9.32155 26.1662C8.87826 26.2289 8.47002 25.9325 8.39258 25.4913L7.98172 23.1491C7.85069 22.4023 7.39142 21.7701 6.72167 21.4148L4.62113 20.3003C4.22541 20.0904 4.06956 19.6107 4.26627 19.2083L5.31057 17.0719C5.64351 16.3907 5.64351 15.6095 5.31057 14.9283L4.26627 12.7919C4.06956 12.3895 4.22541 11.9098 4.62113 11.6999L6.72167 10.5853C7.39137 10.2299 7.85069 9.59785 7.98166 8.85104L8.39247 6.5089C8.46991 6.06768 8.87777 5.77128 9.32144 5.83395L11.6759 6.167C12.4265 6.27325 13.1697 6.0317 13.7147 5.50457L15.4238 3.85127C15.7457 3.53988 16.25 3.53988 16.572 3.85127L18.2811 5.50457C18.826 6.03175 19.5692 6.27325 20.3199 6.167L22.6743 5.83395C23.1177 5.77122 23.5259 6.06768 23.6033 6.5089L24.0141 8.8511C24.1451 9.59791 24.6044 10.23 25.2741 10.5853L27.3747 11.6999C27.7704 11.9098 27.9263 12.3895 27.7295 12.7919L26.6852 14.9282C26.3523 15.6093 26.3523 16.3907 26.6852 17.0718L27.7295 19.2081C27.9263 19.6107 27.7705 20.0904 27.3747 20.3004Z" fill="black"/>
<path d="M21.7687 10.2312C21.4605 9.92292 20.9605 9.92292 20.6522 10.2312L10.2312 20.6522C9.92292 20.9605 9.92292 21.4604 10.2312 21.7687C10.3854 21.9229 10.5875 22 10.7895 22C10.9915 22 11.1936 21.9229 11.3477 21.7687L21.7687 11.3478C22.0771 11.0395 22.0771 10.5396 21.7687 10.2312Z" fill="black"/>
<path d="M13 9C11.3458 9 10 10.3458 10 12C10 13.6542 11.3458 15 13 15C14.6542 15 16 13.6542 16 12C16 10.3458 14.6542 9 13 9ZM13 13.3636C12.2481 13.3636 11.6364 12.7519 11.6364 11.9999C11.6364 11.248 12.2481 10.6363 13 10.6363C13.7519 10.6363 14.3637 11.248 14.3637 11.9999C14.3636 12.7519 13.7519 13.3636 13 13.3636Z" fill="black"/>
<path d="M19 17C17.3458 17 16 18.3458 16 20C16 21.6542 17.3458 23 19 23C20.6542 23 22 21.6542 22 20C22 18.3458 20.6542 17 19 17ZM19 21.3636C18.2481 21.3636 17.6363 20.7519 17.6363 20C17.6363 19.2481 18.248 18.6364 19 18.6364C19.7519 18.6364 20.3636 19.2481 20.3636 20C20.3636 20.7519 19.7519 21.3636 19 21.3636Z" fill="black"/>
</svg>
