<svg width="32" height="32" viewBox="0 0 32 32" fill="none" xmlns="http://www.w3.org/2000/svg">
<path d="M25.1924 19.8076C23.7765 18.3917 22.0912 17.3435 20.2524 16.709C22.2218 15.3526 23.5156 13.0825 23.5156 10.5156C23.5156 6.37152 20.1441 3 16 3C11.8559 3 8.48438 6.37152 8.48438 10.5156C8.48438 13.0825 9.77823 15.3526 11.7477 16.709C9.90889 17.3435 8.22356 18.3917 6.80763 19.8076C4.35225 22.263 3 25.5276 3 29H5.03125C5.03125 22.9518 9.9518 18.0312 16 18.0312C22.0482 18.0312 26.9688 22.9518 26.9688 29H29C29 25.5276 27.6477 22.263 25.1924 19.8076ZM16 16C12.9759 16 10.5156 13.5398 10.5156 10.5156C10.5156 7.4915 12.9759 5.03125 16 5.03125C19.0241 5.03125 21.4844 7.4915 21.4844 10.5156C21.4844 13.5398 19.0241 16 16 16Z" fill="#39161C"/>
</svg>
