<svg width="42" height="42" viewBox="0 0 42 42" fill="none" xmlns="http://www.w3.org/2000/svg">
<g clip-path="url(#clip0_1437_8090)">
<path d="M40.7361 19.1135L32.4708 15.7098L38.0813 7.29575C38.7393 6.30175 38.6151 5.068 37.7716 4.22625C36.9281 3.3845 35.6926 3.2585 34.6986 3.9165L26.2776 9.506L22.8826 1.2635C22.5658 0.497 21.8256 0 20.9978 0C20.1701 0 19.4298 0.49525 19.1131 1.2635L15.7181 9.506L7.29534 3.9165C6.30134 3.26025 5.06584 3.38625 4.22409 4.228C3.38234 5.06975 3.25634 6.30525 3.91609 7.301L9.52484 15.7133L1.25959 19.117C0.493094 19.432 -0.00390625 20.174 -0.00390625 21.0035C-0.00390625 21.833 0.491344 22.5733 1.25959 22.89L9.52484 26.2938L3.91434 34.7078C3.25634 35.7018 3.38059 36.9355 4.22409 37.7773C4.70534 38.2603 5.31609 38.507 5.93734 38.507C6.40284 38.507 6.87184 38.3688 7.29709 38.087L15.7181 32.4975L19.1131 40.74C19.4298 41.5065 20.1701 42.0035 20.9978 42.0035C21.8256 42.0035 22.5658 41.5083 22.8826 40.74L26.2776 32.4975L34.7003 38.087C35.1256 38.3688 35.5946 38.5053 36.0566 38.5053C36.6761 38.5053 37.2886 38.2585 37.7698 37.7755C38.6116 36.9338 38.7376 35.6983 38.0778 34.7025L32.4691 26.2903L40.7343 22.8865C41.5008 22.5715 41.9978 21.8295 41.9978 21C41.9978 20.1705 41.5043 19.4303 40.7361 19.1135ZM35.6663 5.37425C36.0968 5.08725 36.4416 5.36725 36.5361 5.4635C36.6288 5.55625 36.9123 5.89575 36.6253 6.328L30.8223 15.0308L28.0923 13.9073L26.9583 11.1528L35.6663 5.37425ZM5.37559 6.3315C5.08684 5.89575 5.37034 5.558 5.46309 5.4635C5.55584 5.36725 5.89709 5.09075 6.33109 5.37425L15.0408 11.1545L13.9068 13.909L11.1768 15.0325L5.37559 6.3315ZM6.33284 36.6258C5.89884 36.9093 5.55584 36.631 5.46309 36.5365C5.37034 36.4438 5.08684 36.1043 5.37384 35.672L11.1768 26.9693L13.9068 28.0928L15.0408 30.8473L6.33284 36.6258ZM36.6236 35.6702C36.9123 36.106 36.6288 36.4438 36.5361 36.5383C36.4416 36.6328 36.0986 36.9093 35.6681 36.6275L26.9583 30.8473L28.0923 28.0928L30.8223 26.9693L36.6236 35.6702ZM40.0711 21.2695L27.0896 26.6158C26.8743 26.705 26.7028 26.8765 26.6153 27.0918L21.2691 40.0733C21.1466 40.369 20.8561 40.369 20.7318 40.0733L15.3856 27.0918C15.2963 26.8765 15.1266 26.705 14.9113 26.6158L1.92984 21.2695C1.78109 21.2083 1.74959 21.0893 1.74959 21.0018C1.74959 20.9143 1.78109 20.7952 1.92984 20.734L14.9113 15.3878C15.1266 15.2985 15.2981 15.127 15.3856 14.9118L20.7318 1.93025C20.7931 1.78325 20.9121 1.75 20.9996 1.75C21.0871 1.75 21.2061 1.7815 21.2673 1.93025L26.6136 14.9118C26.7028 15.127 26.8726 15.2985 27.0878 15.3878L40.0693 20.734C40.2181 20.7952 40.2496 20.9143 40.2496 21.0018C40.2496 21.0893 40.2181 21.2083 40.0693 21.2695H40.0711Z" fill="#E26178"/>
</g>
<defs>
<clipPath id="clip0_1437_8090">
<rect width="42" height="42" fill="white"/>
</clipPath>
</defs>
</svg>
